Coordinates
version=1
nRows=13
nColumns=40
inDegrees=yes

Units are S.I. units (second, meters, Newtons, ...)
If the header above contains a line with 'inDegrees', this indicates whether rotational values are in degrees (yes) or radians (no).

endheader
time	pelvis_tilt	pelvis_list	pelvis_rotation	pelvis_tx	pelvis_ty	pelvis_tz	hip_flexion_r	hip_adduction_r	hip_rotation_r	knee_angle_r	knee_angle_r_beta	ankle_angle_r	subtalar_angle_r	mtp_angle_r	hip_flexion_l	hip_adduction_l	hip_rotation_l	knee_angle_l	knee_angle_l_beta	ankle_angle_l	subtalar_angle_l	mtp_angle_l	lumbar_extension	lumbar_bending	lumbar_rotation	arm_flex_r	arm_add_r	arm_rot_r	elbow_flex_r	pro_sup_r	wrist_flex_r	wrist_dev_r	arm_flex_l	arm_add_l	arm_rot_l	elbow_flex_l	pro_sup_l	wrist_flex_l	wrist_dev_l
      3.40000000	     -1.45753238	     -2.68917894	      0.80274021	     -0.36523989	      0.86103223	     -0.98846795	     57.92696764	     -1.14385552	     -2.97190093	     32.99203257	      0.57581960	      9.72446336	      0.00000000	      0.00000000	     45.73967256	     -1.93412943	     -1.57011022	     78.61866452	      1.37215455	     22.58764362	      0.00000000	      0.00000000	    -12.85944433	     -0.14741481	     -6.19122829	     89.91307049	     -0.63730610	     43.42652143	     45.61645311	     83.44703268	      0.00000000	      0.00000000	     89.94486131	    -18.86350389	     46.28032850	     53.82624152	     86.94777617	      0.00000000	      0.00000000
      3.40500000	     -1.45440015	     -2.65790858	      0.75650339	     -0.36518643	      0.86075693	     -0.98830956	     57.91761219	     -1.15421327	     -2.85469339	     32.98763593	      0.57574286	      9.50894363	      0.00000000	      0.00000000	     45.74760760	     -1.96678790	     -1.63595455	     78.69258510	      1.37344471	     22.69348267	      0.00000000	      0.00000000	    -12.86720010	     -0.20814893	     -6.15411099	     89.91322789	     -0.63412019	     43.64015501	     45.50686165	     82.51808201	      0.00000000	      0.00000000	     89.94483174	    -18.86893530	     46.30200948	     53.78878622	     87.00443946	      0.00000000	      0.00000000
      3.41000000	     -1.45071122	     -2.67838353	      0.76663671	     -0.36521635	      0.86052678	     -0.98835490	     57.89985462	     -1.18307964	     -2.84111795	     32.94670103	      0.57502841	      9.54164145	      0.00000000	      0.00000000	     45.76349930	     -1.96308753	     -1.60447046	     78.71776941	      1.37388426	     22.73855876	      0.00000000	      0.00000000	    -12.88199229	     -0.18698007	     -6.15644790	     89.91328563	     -0.63832152	     43.73225038	     45.52753906	     81.71558956	      0.00000000	      0.00000000	     89.94479190	    -18.84431048	     46.24140516	     53.77120870	     87.11375429	      0.00000000	      0.00000000
      3.41500000	     -1.50696807	     -2.67110205	      0.81535927	     -0.36528661	      0.86013077	     -0.98841103	     57.95551999	     -1.25384842	     -2.72936908	     32.91546789	      0.57448329	      9.56216724	      0.00000000	      0.00000000	     45.87122533	     -1.91607495	     -1.56914946	     78.78878334	      1.37512368	     22.75592560	      0.00000000	      0.00000000	    -12.83040914	     -0.18656574	     -6.24182944	     89.91341132	     -0.58692636	     43.49631588	     45.57127935	     83.61733813	      0.00000000	      0.00000000	     89.94471014	    -18.91573607	     46.32644377	     53.80535714	     86.90534171	      0.00000000	      0.00000000
      3.42000000	     -1.54323047	     -2.65961505	      0.82773893	     -0.36536756	      0.85974473	     -0.98846791	     58.02168214	     -1.31559061	     -2.79986046	     32.92476942	      0.57464563	      9.52475296	      0.00000000	      0.00000000	     45.94906119	     -1.88168047	     -1.55255610	     78.84054719	      1.37602713	     22.75957595	      0.00000000	      0.00000000	    -12.80196009	     -0.19961187	     -6.23670562	     89.91366859	     -0.62576062	     43.60101414	     45.71500544	     81.17546920	      0.00000000	      0.00000000	     89.94456498	    -18.86557831	     46.26310746	     53.71523586	     87.05636622	      0.00000000	      0.00000000
      3.42500000	     -1.52257807	     -2.65118707	      0.86988853	     -0.36538742	      0.85949403	     -0.98869257	     57.99922467	     -1.40280572	     -2.79197564	     32.91896885	      0.57454439	      9.56401709	      0.00000000	      0.00000000	     45.94843566	     -1.79719815	     -1.47978228	     78.87520109	      1.37663196	     22.82938263	      0.00000000	      0.00000000	    -12.82156522	     -0.18417212	     -6.27074601	     89.91369855	     -0.68180444	     43.84651674	     45.80259563	     80.03506811	      0.00000000	      0.00000000	     89.94476636	    -18.88064630	     46.32784390	     53.71960537	     86.93227113	      0.00000000	      0.00000000
      3.43000000	     -1.50202712	     -2.59000387	      0.85068009	     -0.36542621	      0.85917537	     -0.98867887	     57.99077439	     -1.46294916	     -2.69344281	     32.92567973	      0.57466152	      9.55134168	      0.00000000	      0.00000000	     45.96248827	     -1.77969059	     -1.58520147	     78.93738160	      1.37771721	     22.75452582	      0.00000000	      0.00000000	    -12.86337072	     -0.25925922	     -6.26470046	     89.91403914	     -0.61948512	     43.38892855	     45.69948893	     83.64033528	      0.00000000	      0.00000000	     89.94471575	    -18.89423440	     46.33352876	     53.75523958	     86.89718726	      0.00000000	      0.00000000
      3.43500000	     -1.49506657	     -2.61293709	      0.85847083	     -0.36545108	      0.85890955	     -0.98873313	     57.96687248	     -1.50301787	     -2.79800310	     32.86270902	      0.57356247	      9.69073573	      0.00000000	      0.00000000	     45.98999577	     -1.76540663	     -1.49940224	     79.03565498	      1.37943241	     22.83788222	      0.00000000	      0.00000000	    -12.87986781	     -0.24522838	     -6.24673569	     89.91437724	     -0.71843318	     43.58665751	     45.82980762	     83.06000257	      0.00000000	      0.00000000	     89.94481585	    -18.83450565	     46.28076090	     53.71327867	     86.95822745	      0.00000000	      0.00000000
      3.44000000	     -1.44974628	     -2.65244346	      0.86910386	     -0.36551502	      0.85874076	     -0.98869210	     57.89623732	     -1.50977382	     -2.79346993	     32.79436123	      0.57236958	      9.62174212	      0.00000000	      0.00000000	     45.96380596	     -1.79629775	     -1.50097383	     79.02499230	      1.37924631	     22.84789031	      0.00000000	      0.00000000	    -12.92349592	     -0.19637976	     -6.29620620	     89.91413606	     -0.56132380	     43.44375562	     45.65137111	     82.97324473	      0.00000000	      0.00000000	     89.94481651	    -18.93042424	     46.28866726	     53.76377300	     87.02016709	      0.00000000	      0.00000000
      3.44500000	     -1.49844257	     -2.71367247	      0.86180156	     -0.36553248	      0.85837680	     -0.98868154	     57.96776277	     -1.48808389	     -2.84595303	     32.81920209	      0.57280313	      9.76054032	      0.00000000	      0.00000000	     46.06398210	     -1.81630636	     -1.39569565	     79.12129012	      1.38092702	     22.88863438	      0.00000000	      0.00000000	    -12.87118768	     -0.13641492	     -6.27486555	     89.91385005	     -0.65368874	     43.80919139	     45.84994371	     79.71510566	      0.00000000	      0.00000000	     89.94506309	    -18.92394737	     46.26211862	     53.71229019	     87.22014505	      0.00000000	      0.00000000
      3.45000000	     -1.48593818	     -2.68533864	      0.82811079	     -0.36553180	      0.85817536	     -0.98868378	     57.90615133	     -1.50384176	     -2.78895765	     32.71000083	      0.57089721	      9.81099765	      0.00000000	      0.00000000	     46.06498989	     -1.81132580	     -1.43593352	     79.18563803	      1.38205010	     22.94896286	      0.00000000	      0.00000000	    -12.89088532	     -0.17245738	     -6.26780883	     89.91444624	     -0.53134856	     43.40566679	     45.59435907	     83.46168806	      0.00000000	      0.00000000	     89.94462145	    -18.99981132	     46.33612965	     53.83442170	     86.95289648	      0.00000000	      0.00000000
      3.45500000	     -1.51444711	     -2.74683538	      0.85307155	     -0.36559898	      0.85793328	     -0.98868686	     57.92146281	     -1.52314184	     -2.91668684	     32.65542824	      0.56994474	      9.68383897	      0.00000000	      0.00000000	     46.14262621	     -1.83201375	     -1.36378860	     79.24820095	      1.38314203	     22.97631688	      0.00000000	      0.00000000	    -12.87550220	     -0.08987263	     -6.25250767	     89.91423612	     -0.59578334	     43.61617306	     45.73662142	     82.57763116	      0.00000000	      0.00000000	     89.94483899	    -18.99953301	     46.35704067	     53.86865325	     86.77160362	      0.00000000	      0.00000000
      3.46000000	     -1.55810379	     -2.73626520	      0.88259057	     -0.36560621	      0.85759552	     -0.98877808	     57.96966068	     -1.59110589	     -2.90700688	     32.67336031	      0.57025772	      9.73779477	      0.00000000	      0.00000000	     46.22489706	     -1.73374754	     -1.25514585	     79.30284759	      1.38409580	     22.95553832	      0.00000000	      0.00000000	    -12.83959569	     -0.10503793	     -6.30408814	     89.91485486	     -0.64795570	     43.93402463	     45.78403357	     81.43260098	      0.00000000	      0.00000000	     89.94480264	    -19.05394013	     46.41884651	     53.96304331	     86.84395164	      0.00000000	      0.00000000
